<?xml version="1.0" standalone="no"?>
<!DOCTYPE svg PUBLIC "-//W3C//DTD SVG 20010904//EN"
 "http://www.w3.org/TR/2001/REC-SVG-20010904/DTD/svg10.dtd">
<svg version="1.0" xmlns="http://www.w3.org/2000/svg"
 width="512.000000pt" height="512.000000pt" viewBox="0 0 512.000000 512.000000"
 preserveAspectRatio="xMidYMid meet">
<metadata>
Created by potrace 1.14, written by Peter Selinger 2001-2017
</metadata>
<g transform="translate(0.000000,512.000000) scale(0.100000,-0.100000)"
fill="#000000" stroke="none">
<path d="M97 4808 c-15 -11 -27 -27 -27 -37 0 -9 -4 -21 -9 -26 -24 -24 -34
-296 -17 -445 4 -36 9 -78 10 -95 11 -103 19 -161 24 -169 3 -6 6 -24 8 -42 1
-17 5 -40 8 -51 4 -12 9 -42 12 -69 2 -26 9 -54 15 -61 7 -7 9 -13 6 -13 -3 0
1 -28 10 -62 16 -70 23 -103 26 -133 1 -11 5 -23 9 -26 5 -3 10 -18 13 -35 7
-45 28 -128 34 -134 4 -3 7 -11 9 -18 1 -7 4 -20 6 -30 3 -16 5 -24 23 -69 3
-10 5 -24 4 -30 -1 -7 3 -13 9 -13 5 0 10 -7 10 -16 0 -19 19 -64 68 -164 43
-87 132 -182 205 -219 45 -23 60 -41 35 -41 -6 0 -9 -3 -5 -6 3 -4 -6 -25 -21
-48 -15 -22 -33 -52 -40 -66 -7 -14 -25 -45 -39 -70 -35 -62 -113 -216 -113
-224 0 -4 37 -6 83 -4 45 1 88 -2 95 -6 7 -4 12 -3 12 3 0 7 8 7 24 1 14 -5
26 -6 28 -2 2 4 16 5 32 2 l29 -5 -29 -31 c-85 -93 -180 -223 -261 -359 -27
-45 -133 -264 -133 -275 0 -6 -7 -21 -16 -35 -8 -13 -16 -40 -17 -59 -1 -20
-5 -36 -9 -36 -4 0 -10 -20 -14 -45 -3 -25 -10 -48 -15 -50 -4 -3 -4 -17 1
-31 7 -18 7 -23 -1 -18 -7 4 -10 1 -7 -7 6 -16 23 -14 75 8 21 9 41 16 45 15
5 -1 8 3 8 8 0 5 3 9 8 8 11 -2 66 14 78 24 7 5 16 8 20 7 5 -1 11 0 14 1 8 3
50 9 109 16 50 5 54 4 42 -10 -8 -9 -10 -16 -6 -16 4 0 3 -6 -2 -13 -12 -15
-35 -102 -49 -187 -8 -53 -13 -153 -7 -163 2 -4 11 -3 19 4 8 6 14 8 14 3 0
-5 4 -4 8 2 6 10 157 71 193 78 8 2 21 6 29 9 40 17 180 44 223 43 26 0 47 2
47 6 0 4 6 6 13 3 6 -2 41 -6 77 -10 36 -3 83 -10 105 -16 40 -10 47 -12 117
-43 20 -9 40 -16 46 -16 5 0 17 -11 26 -25 9 -14 14 -25 10 -25 -4 0 -1 -6 5
-14 7 -8 13 -23 15 -33 8 -38 88 -189 151 -284 53 -79 235 -286 235 -266 0 3
17 -9 37 -28 48 -44 197 -133 266 -158 115 -42 167 -57 215 -60 6 0 12 -3 12
-6 0 -3 15 -7 33 -8 150 -8 229 -8 267 0 25 4 61 10 80 13 41 5 50 7 110 23
54 14 61 17 173 72 49 23 118 64 153 91 36 26 67 48 70 48 3 0 40 35 82 78 78
79 177 208 216 279 12 21 26 41 31 45 7 5 7 8 0 8 -5 0 -4 4 3 9 7 4 14 18 15
29 1 12 4 22 8 22 7 0 32 56 29 66 -1 4 2 10 7 13 5 3 18 31 29 61 17 47 26
58 74 87 122 72 302 86 485 38 86 -22 158 -46 173 -58 6 -5 12 -6 12 -2 0 4
11 0 25 -9 14 -9 25 -14 25 -11 0 3 10 0 23 -7 12 -7 24 -13 27 -14 3 0 22 -8
42 -17 21 -10 40 -17 43 -17 11 0 -7 234 -22 270 -3 8 -8 26 -10 39 -2 14 -8
32 -14 42 -18 35 -11 42 39 36 67 -9 93 -15 141 -31 22 -9 41 -13 41 -9 0 3 6
0 13 -6 8 -6 17 -8 20 -4 4 3 7 1 7 -5 0 -7 6 -12 13 -12 7 0 30 -9 52 -20 22
-11 42 -20 46 -20 9 0 -4 121 -15 139 -4 5 -8 27 -10 49 -2 22 -11 55 -19 73
-8 19 -21 51 -28 72 -7 20 -17 37 -21 37 -4 0 -7 3 -6 8 1 4 -3 18 -9 32 -6
14 -11 29 -11 34 0 5 -4 12 -9 15 -5 3 -22 31 -37 61 -16 30 -34 62 -42 71 -8
8 -14 19 -14 23 0 20 -171 257 -227 314 -33 33 -29 42 22 43 25 0 60 1 78 2
19 0 39 -3 45 -7 7 -4 12 -2 12 5 0 8 4 8 15 -1 8 -7 15 -8 15 -3 0 4 18 7 40
5 22 -2 40 -1 40 3 0 18 -146 288 -207 383 -19 30 -29 51 -23 47 5 -3 10 -1
10 4 0 6 6 11 14 11 7 0 19 7 26 15 7 8 16 13 20 10 10 -6 150 133 150 150 0
7 7 21 15 29 14 13 56 96 61 119 1 4 3 9 4 12 1 3 4 10 5 15 1 6 3 11 5 13 1
1 3 11 5 22 2 11 9 21 15 23 5 2 7 8 4 13 -3 6 0 16 6 24 7 8 9 15 5 15 -4 0
-2 7 5 15 7 8 10 15 7 15 -4 0 1 19 9 43 9 23 17 49 19 57 2 8 4 15 5 15 1 0
4 11 7 25 6 31 7 35 22 90 16 55 22 79 26 105 2 11 4 20 5 20 3 0 13 51 14 73
1 12 4 22 8 22 5 0 7 3 6 8 -1 4 1 21 5 37 4 17 9 44 12 60 2 17 9 53 14 80 5
28 9 57 9 65 1 8 6 38 11 65 9 49 14 86 27 210 11 97 11 291 2 358 -5 34 -18
81 -29 103 -31 65 -68 73 -184 42 -22 -5 -45 -11 -52 -12 -7 -1 -16 -5 -19 -9
-4 -4 -13 -7 -20 -7 -8 0 -37 -11 -66 -23 -29 -13 -69 -30 -88 -37 -19 -7 -70
-30 -112 -51 -43 -21 -78 -35 -78 -31 0 4 -4 2 -8 -3 -4 -6 -29 -21 -57 -35
-27 -14 -53 -29 -56 -33 -3 -5 -9 -8 -13 -7 -10 2 -100 -44 -104 -52 -2 -5 -9
-8 -16 -8 -8 0 -25 -9 -38 -20 -14 -10 -28 -17 -30 -14 -3 2 -11 -2 -18 -11
-7 -8 -19 -15 -26 -15 -8 0 -14 -4 -14 -10 0 -5 -5 -10 -11 -10 -19 0 -384
-232 -439 -278 -8 -7 -35 -29 -60 -48 -82 -63 -134 -108 -190 -164 -30 -30
-57 -54 -60 -54 -3 1 -23 5 -45 8 -22 3 -49 7 -60 10 -12 2 -48 7 -80 11 -33
4 -73 9 -90 12 -48 8 -117 12 -320 19 -228 7 -183 7 -345 -1 -141 -7 -169 -9
-260 -19 -104 -12 -125 -15 -194 -30 l-69 -14 -58 56 c-69 69 -129 123 -129
117 0 -2 -17 12 -37 30 -21 19 -41 35 -45 35 -4 0 -22 14 -40 30 -18 17 -38
30 -44 30 -7 0 -14 7 -18 15 -3 8 -12 15 -20 15 -8 0 -16 3 -18 8 -3 7 -73 54
-168 113 -30 18 -57 36 -60 39 -3 3 -25 16 -50 29 -25 14 -48 29 -51 34 -3 5
-9 8 -13 8 -6 -1 -30 11 -71 37 -11 7 -28 15 -37 18 -10 4 -18 11 -18 16 0 5
-4 7 -9 4 -5 -3 -20 4 -35 15 -14 11 -26 17 -26 12 0 -4 -4 -3 -8 3 -7 10 -77
45 -87 44 -3 0 -13 6 -21 15 -9 8 -19 13 -24 10 -5 -3 -10 -1 -12 3 -6 16
-378 179 -422 186 -6 1 -17 5 -23 9 -7 5 -13 6 -13 3 0 -3 -12 -1 -27 5 -53
20 -116 19 -146 -3z"/>
</g>
</svg>
